<svg width="155" height="155" viewBox="0 0 155 155" fill="none" xmlns="http://www.w3.org/2000/svg">
<g filter="url(#filter0_d_7370_26145)">
<g filter="url(#filter1_d_7370_26145)">
<path d="M119.899 74.3595C119.944 75.0092 119.974 75.6629 119.989 76.3204L119.489 76.3317C119.496 76.6553 119.5 76.9798 119.5 77.3052C119.5 77.6305 119.496 77.955 119.489 78.2786L119.989 78.2899C119.974 78.9473 119.944 79.6011 119.899 80.2508L119.401 80.2167C119.356 80.8648 119.297 81.5088 119.224 82.1484L119.72 82.2055C119.646 82.8582 119.556 83.5064 119.452 84.1498L118.958 84.0699C118.854 84.7106 118.736 85.3464 118.604 85.9769L119.093 86.0797C118.958 86.7222 118.809 87.3594 118.645 87.9909L118.161 87.8655C117.998 88.4934 117.821 89.1157 117.631 89.7318L118.109 89.8796C117.915 90.5066 117.706 91.1274 117.485 91.7416L117.014 91.5717C116.794 92.1814 116.56 92.7845 116.313 93.3808L116.775 93.5723C116.523 94.1781 116.259 94.7768 115.98 95.368L115.528 95.1552C115.252 95.7414 114.963 96.3203 114.662 96.8913L115.104 97.1249C114.798 97.7044 114.478 98.2759 114.147 98.8392L113.716 98.5854C113.387 99.1433 113.046 99.693 112.693 100.234L113.111 100.507C112.753 101.056 112.383 101.596 112 102.126L111.595 101.834C111.216 102.359 110.826 102.875 110.424 103.381L110.816 103.692C110.409 104.205 109.99 104.708 109.56 105.202L109.183 104.873C108.758 105.361 108.322 105.839 107.876 106.307L108.237 106.652C107.785 107.125 107.322 107.588 106.849 108.04L106.503 107.679C106.036 108.125 105.558 108.561 105.07 108.986L105.398 109.363C104.905 109.793 104.401 110.211 103.888 110.618L103.577 110.226C103.071 110.628 102.555 111.018 102.03 111.397L102.322 111.802C101.792 112.185 101.252 112.555 100.703 112.913L100.43 112.494C99.8888 112.848 99.3391 113.189 98.7811 113.517L99.0348 113.948C98.4715 114.28 97.8999 114.599 97.3203 114.905L97.0868 114.463C96.5158 114.764 95.9369 115.053 95.3506 115.329L95.5633 115.781C94.972 116.059 94.3733 116.324 93.7675 116.575L93.576 116.113C92.9798 116.36 92.3766 116.594 91.7668 116.814L91.9366 117.285C91.3224 117.506 90.7016 117.715 90.0746 117.908L89.9269 117.431C89.3107 117.621 88.6884 117.798 88.0605 117.961L88.1858 118.445C87.5543 118.608 86.9171 118.758 86.2746 118.892L86.1719 118.403C85.5413 118.535 84.9055 118.654 84.2648 118.757L84.3447 119.251C83.7013 119.355 83.0531 119.445 82.4003 119.52L82.3433 119.023C81.7037 119.096 81.0596 119.155 80.4115 119.2L80.4457 119.699C79.7959 119.743 79.1422 119.773 78.4848 119.788L78.4734 119.288C78.1498 119.295 77.8254 119.299 77.5 119.299C77.1746 119.299 76.8502 119.295 76.5266 119.288L76.5152 119.788C75.8578 119.773 75.2041 119.743 74.5543 119.699L74.5885 119.2C73.9404 119.155 73.2963 119.096 72.6567 119.023L72.5997 119.52C71.9469 119.445 71.2987 119.355 70.6553 119.251L70.7352 118.757C70.0945 118.654 69.4587 118.535 68.8281 118.403L68.7254 118.892C68.0829 118.758 67.4457 118.608 66.8142 118.445L66.9395 117.961C66.3116 117.798 65.6893 117.621 65.0731 117.431L64.9254 117.908C64.2984 117.715 63.6776 117.507 63.0634 117.285L63.2332 116.814C62.6234 116.594 62.0203 116.36 61.424 116.113L61.2325 116.575C60.6267 116.324 60.028 116.059 59.4367 115.781L59.6494 115.329C59.0631 115.053 58.4843 114.764 57.9132 114.463L57.6797 114.905C57.1001 114.599 56.5285 114.28 55.9652 113.948L56.2189 113.517C55.6609 113.189 55.1112 112.848 54.5701 112.494L54.2968 112.913C53.7482 112.555 53.2085 112.185 52.6779 111.802L52.9702 111.397C52.4451 111.018 51.929 110.628 51.4225 110.226L51.1118 110.618C50.5988 110.211 50.0953 109.793 49.6019 109.363L49.9302 108.986C49.4423 108.561 48.9643 108.125 48.4965 107.678L48.1512 108.04C47.6778 107.588 47.2149 107.125 46.7628 106.652L47.1243 106.307C46.6776 105.839 46.2415 105.361 45.8165 104.873L45.4395 105.202C45.0098 104.708 44.5912 104.205 44.1843 103.692L44.576 103.381C44.1742 102.875 43.7839 102.359 43.4054 101.834L42.9998 102.126C42.6173 101.596 42.2468 101.056 41.8886 100.507L42.3073 100.234C41.9539 99.693 41.6128 99.1433 41.2841 98.5854L40.8533 98.8392C40.5215 98.2759 40.2024 97.7044 39.8962 97.1249L40.3383 96.8913C40.0366 96.3203 39.7477 95.7414 39.472 95.1552L39.0195 95.368C38.7414 94.7768 38.4766 94.1781 38.2253 93.5723L38.6872 93.3808C38.4399 92.7845 38.2059 92.1814 37.9857 91.5717L37.5154 91.7416C37.2936 91.1274 37.0855 90.5066 36.8915 89.8796L37.3692 89.7318C37.1785 89.1157 37.0017 88.4934 36.839 87.8655L36.355 87.9909C36.1914 87.3594 36.042 86.7222 35.9071 86.0797L36.3964 85.9769C36.264 85.3464 36.1458 84.7106 36.042 84.0699L35.5484 84.1498C35.4442 83.5064 35.3545 82.8582 35.2795 82.2055L35.7763 82.1484C35.7028 81.5088 35.6437 80.8648 35.5993 80.2167L35.1005 80.2508C35.056 79.6011 35.0261 78.9474 35.0112 78.2899L35.5111 78.2786C35.5037 77.955 35.5 77.6305 35.5 77.3052C35.5 76.9798 35.5037 76.6553 35.5111 76.3318L35.0112 76.3204C35.0261 75.663 35.056 75.0092 35.1005 74.3595L35.5993 74.3937C35.6437 73.7456 35.7028 73.1015 35.7763 72.4619L35.2795 72.4048C35.3545 71.7521 35.4442 71.1039 35.5484 70.4605L36.042 70.5404C36.1458 69.8998 36.264 69.264 36.3964 68.6334L35.9071 68.5306C36.042 67.8881 36.1914 67.2509 36.355 66.6194L36.839 66.7448C37.0017 66.1169 37.1785 65.4947 37.3692 64.8785L36.8915 64.7307C37.0855 64.1037 37.2936 63.483 37.5154 62.8688L37.9857 63.0386C38.2059 62.4289 38.4399 61.8258 38.6872 61.2296L38.2253 61.038C38.4766 60.4322 38.7414 59.8335 39.0195 59.2423L39.472 59.4551C39.7477 58.8689 40.0366 58.2901 40.3383 57.719L39.8962 57.4854C40.2024 56.9059 40.5215 56.3344 40.8533 55.7711L41.2841 56.0249C41.6128 55.467 41.9539 54.9173 42.3073 54.3763L41.8886 54.1029C42.2468 53.5544 42.6173 53.0147 42.9998 52.4842L43.4054 52.7766C43.7839 52.2516 44.1742 51.7356 44.576 51.2292L44.1843 50.9184C44.5912 50.4055 45.0098 49.9021 45.4395 49.4088L45.8165 49.7372C46.2415 49.2493 46.6776 48.7714 47.1243 48.3037L46.7628 47.9583C47.2149 47.4851 47.6778 47.0222 48.1512 46.5702L48.4965 46.9318C48.9643 46.4852 49.4423 46.0492 49.9302 45.6243L49.6019 45.2472C50.0953 44.8176 50.5988 44.3992 51.1118 43.9923L51.4225 44.3841C51.929 43.9824 52.4451 43.5922 52.9702 43.2138L52.6779 42.8081C53.2085 42.4258 53.7482 42.0554 54.2968 41.6973L54.5701 42.116C55.1112 41.7628 55.6609 41.4217 56.2189 41.0932L55.9652 40.6623C56.5285 40.3306 57.1001 40.0116 57.6797 39.7055L57.9132 40.1477C58.4842 39.8461 59.0631 39.5573 59.6494 39.2816L59.4367 38.8291C60.028 38.5512 60.6267 38.2864 61.2325 38.0352L61.424 38.4971C62.0202 38.2499 62.6234 38.016 63.2332 37.7959L63.0634 37.3256C63.6776 37.1038 64.2984 36.8958 64.9254 36.7019L65.0731 37.1796C65.6893 36.989 66.3116 36.8122 66.9395 36.6496L66.8142 36.1656C67.4457 36.0021 68.0829 35.8527 68.7254 35.7179L68.8281 36.2072C69.4587 36.0749 70.0945 35.9567 70.7352 35.8529L70.6553 35.3594C71.2987 35.2552 71.9469 35.1655 72.5997 35.0906L72.6567 35.5873C73.2963 35.5139 73.9404 35.4548 74.5885 35.4105L74.5543 34.9116C75.2041 34.8672 75.8578 34.8373 76.5152 34.8223L76.5266 35.3222C76.8502 35.3149 77.1746 35.3112 77.5 35.3112C77.8254 35.3112 78.1498 35.3149 78.4734 35.3222L78.4848 34.8223C79.1422 34.8373 79.7959 34.8672 80.4457 34.9116L80.4115 35.4105C81.0596 35.4548 81.7037 35.5139 82.3433 35.5873L82.4003 35.0906C83.0531 35.1655 83.7013 35.2552 84.3447 35.3594L84.2648 35.8529C84.9055 35.9567 85.5413 36.0749 86.1719 36.2072L86.2746 35.7179C86.9171 35.8527 87.5543 36.0021 88.1858 36.1656L88.0605 36.6496C88.6884 36.8122 89.3107 36.989 89.9269 37.1796L90.0746 36.7019C90.7016 36.8958 91.3224 37.1038 91.9366 37.3256L91.7668 37.7959C92.3766 38.016 92.9797 38.2499 93.576 38.4971L93.7675 38.0352C94.3733 38.2864 94.972 38.5511 95.5633 38.8291L95.3506 39.2816C95.9369 39.5573 96.5157 39.8461 97.0868 40.1477L97.3203 39.7055C97.8999 40.0116 98.4715 40.3306 99.0348 40.6623L98.7811 41.0932C99.3391 41.4217 99.8888 41.7628 100.43 42.116L100.703 41.6973C101.252 42.0554 101.792 42.4258 102.322 42.8081L102.03 43.2138C102.555 43.5922 103.071 43.9824 103.577 44.3841L103.888 43.9923C104.401 44.3992 104.905 44.8176 105.398 45.2473L105.07 45.6243C105.558 46.0492 106.036 46.4852 106.503 46.9318L106.849 46.5702C107.322 47.0222 107.785 47.4851 108.237 47.9583L107.876 48.3037C108.322 48.7714 108.758 49.2493 109.183 49.7372L109.56 49.4088C109.99 49.9021 110.409 50.4055 110.816 50.9184L110.424 51.2292C110.826 51.7356 111.216 52.2516 111.595 52.7766L112 52.4842C112.383 53.0147 112.753 53.5544 113.111 54.1029L112.693 54.3763C113.046 54.9173 113.387 55.467 113.716 56.0249L114.147 55.7711C114.478 56.3344 114.798 56.9059 115.104 57.4854L114.662 57.719C114.963 58.29 115.252 58.8689 115.528 59.4551L115.98 59.2423C116.259 59.8335 116.523 60.4322 116.775 61.038L116.313 61.2296C116.56 61.8258 116.794 62.4289 117.014 63.0386L117.485 62.8688C117.706 63.483 117.915 64.1037 118.109 64.7307L117.631 64.8785C117.821 65.4946 117.998 66.1169 118.161 66.7448L118.645 66.6194C118.809 67.2509 118.958 67.8881 119.093 68.5306L118.604 68.6334C118.736 69.2639 118.854 69.8997 118.958 70.5404L119.452 70.4605C119.556 71.1039 119.646 71.7521 119.72 72.4048L119.224 72.4619C119.297 73.1015 119.356 73.7455 119.401 74.3936L119.899 74.3595Z" stroke="white" stroke-dasharray="2 2" shape-rendering="crispEdges"/>
</g>
<g filter="url(#filter2_d_7370_26145)">
<ellipse cx="77.4996" cy="77.3047" rx="29.8649" ry="29.8606" fill="white"/>
</g>
<path d="M74.0399 79.3188C73.5933 78.8224 72.8486 78.7729 72.3525 79.17C71.856 79.6166 71.8065 80.3611 72.2036 80.8572L73.3949 82.2962C65.7514 81.9985 61.036 80.8572 59.0507 79.9142C58.4552 79.6165 58.4552 78.8719 59.0507 78.5742C60.3909 77.9289 62.9221 77.2342 66.6447 76.7381V74.3561C61.1847 75.0508 55.6755 76.4404 55.6755 79.2194C55.6755 83.4874 68.3322 84.4798 73.7423 84.6786L71.9555 86.4652C71.5089 86.9117 71.5089 87.7058 71.9555 88.1524C72.4021 88.599 73.1964 88.599 73.643 88.1524L77.0678 84.7779C77.5144 84.3314 77.5643 83.5373 77.1672 82.9914C76.3231 81.9989 74.9334 80.3611 74.0401 79.3189L74.0399 79.3188Z" fill="#272727"/>
<path d="M88.0375 74.3562V76.7382C91.7105 77.2346 94.2913 77.9293 95.6315 78.5743C96.227 78.872 96.227 79.6661 95.6315 79.9143C93.5964 80.9068 88.4841 82.098 80.2946 82.3461C79.6492 82.3461 79.1033 82.892 79.1033 83.5868C79.1033 84.2321 79.6493 84.7779 80.2946 84.7281C85.258 84.5793 99.0066 83.7357 99.0066 79.269C99.0066 76.4408 93.4972 75.0512 88.0375 74.3561V74.3562Z" fill="#272727"/>
<path d="M70.7638 74.3559C71.0615 74.207 71.3098 74.0083 71.5081 73.81C71.9053 73.4129 72.1036 72.8175 72.1036 72.1227C72.1036 71.3785 71.8554 70.7332 71.3094 70.2866C70.7634 69.7902 69.9692 69.5424 68.9271 69.5424C68.2817 69.5424 67.6862 69.6417 67.1402 69.8401C66.6438 70.0384 66.1971 70.2866 65.8499 70.5843L65.6515 70.7332L66.4952 71.9243L66.6936 71.7755C67.0412 71.5771 67.3884 71.3784 67.7361 71.2296C68.0837 71.0807 68.4804 71.0312 68.9274 71.0312C69.374 71.0312 69.7711 71.1305 70.0193 71.3289C70.2676 71.5273 70.3669 71.8253 70.3669 72.1725C70.3669 72.6191 70.2181 72.9666 69.8705 73.2643C69.5229 73.562 68.9772 73.7109 68.282 73.7109H67.0907V75.1998H68.2322C69.0264 75.1998 69.6219 75.2991 70.0686 75.5473C70.4657 75.7457 70.6145 76.0933 70.6145 76.5897C70.6145 77.0861 70.4657 77.4828 70.1181 77.7808C69.7705 78.0785 69.2248 78.2274 68.4801 78.2274C68.083 78.2274 67.6364 78.1779 67.2393 78.0785C66.7927 77.9792 66.3956 77.8303 65.9984 77.632L65.6013 77.4336V79.0713L65.7502 79.1208C66.1473 79.3192 66.5939 79.4684 67.0406 79.5674C67.4872 79.6667 67.9338 79.6667 68.4303 79.6667C69.2741 79.6667 70.0188 79.5179 70.5644 79.2697C71.1599 79.0215 71.557 78.6244 71.8548 78.1779C72.1526 77.7313 72.2519 77.1854 72.2519 76.5896C72.2519 75.8949 72.0536 75.3489 71.6066 74.9024C71.5086 74.7033 71.161 74.505 70.7639 74.3558L70.7638 74.3559Z" fill="#272727"/>
<path d="M77.0668 73.2146C76.4713 73.2146 75.9748 73.3139 75.5777 73.5621C75.3793 73.6615 75.2301 73.7605 75.0812 73.9097C75.1307 73.6615 75.1806 73.4133 75.2301 73.1654C75.3294 72.7189 75.4783 72.3713 75.6767 72.0241C75.8751 71.7264 76.1732 71.4782 76.5204 71.2798C77.0169 71.0316 77.7117 70.9323 78.4562 71.0316C78.6546 71.0316 78.8038 71.0811 78.9526 71.131L79.3003 71.2303V69.7407L79.1019 69.6912C78.953 69.6417 78.7543 69.5919 78.5064 69.5919C78.2581 69.5919 78.0597 69.5424 77.861 69.5424C76.9179 69.5424 76.1735 69.6912 75.5777 70.0388C74.9822 70.3863 74.4857 70.8329 74.1879 71.3788C73.8403 71.9247 73.6419 72.5699 73.4931 73.2149C73.3937 73.8602 73.2947 74.5549 73.2947 75.2497C73.2947 76.2422 73.4436 77.0363 73.7413 77.6815C74.0391 78.3268 74.4857 78.8228 74.9822 79.1704C75.4786 79.4681 76.0741 79.6668 76.7195 79.6668C77.7121 79.6668 78.5063 79.3691 79.1019 78.7238C79.6974 78.1284 79.9951 77.2848 79.9951 76.2425C79.9951 75.25 79.6974 74.5053 79.1514 73.9594C78.6549 73.4627 77.9601 73.2145 77.0667 73.2145L77.0668 73.2146ZM78.3572 76.2917C78.3572 76.9865 78.2083 77.4829 77.9106 77.7806C77.6128 78.0784 77.2157 78.2272 76.7691 78.2272C76.372 78.2272 76.0742 78.1278 75.8259 77.9295C75.5777 77.7311 75.3793 77.4331 75.2304 77.1354C75.0816 76.7878 75.032 76.4406 75.032 76.093C75.032 75.8448 75.0816 75.6464 75.2304 75.3983C75.3793 75.15 75.578 74.9517 75.8758 74.8028C76.124 74.654 76.4713 74.5546 76.8189 74.5546C77.3649 74.5546 77.7122 74.7035 78.0102 75.0012C78.2578 75.3487 78.3571 75.7953 78.3571 76.2917L78.3572 76.2917Z" fill="#272727"/>
<path d="M86.6979 70.9319C86.1519 69.9889 85.2587 69.5424 84.1168 69.5424C83.3226 69.5424 82.6277 69.7407 82.1316 70.1876C81.6352 70.5847 81.2879 71.1801 81.0397 71.9742C80.8413 72.7185 80.7419 73.6119 80.7419 74.6539C80.7419 76.1922 80.9902 77.4329 81.5362 78.3264C82.0822 79.2694 82.9754 79.7159 84.1172 79.7159C84.9115 79.7159 85.6063 79.5176 86.1024 79.0707C86.5989 78.6736 86.9461 78.0782 87.1944 77.2841C87.3927 76.5398 87.542 75.6464 87.542 74.6044C87.5416 73.0657 87.2439 71.825 86.6979 70.9319ZM85.8542 74.6539C85.8542 75.8946 85.7053 76.8376 85.4075 77.433C85.1593 77.9789 84.7127 78.2271 84.1171 78.2271C83.5216 78.2271 83.0746 77.9789 82.8267 77.433C82.529 76.8376 82.4296 75.8946 82.4296 74.6539C82.4296 73.4133 82.5785 72.4703 82.8267 71.8749C83.075 71.329 83.4721 71.0808 84.1171 71.0808C84.7126 71.0808 85.1097 71.329 85.4075 71.8749C85.7049 72.4703 85.8542 73.4133 85.8542 74.6539Z" fill="#272727"/>
<path d="M87.9376 69.6911C86.8951 69.6911 86.0018 68.8475 86.0018 67.7556C86.0018 66.6639 86.8456 65.8202 87.9376 65.8202C88.9801 65.8202 89.8733 66.6638 89.8733 67.7556C89.8733 68.8474 88.9797 69.6911 87.9376 69.6911ZM87.9376 66.8622C87.4411 66.8622 87.0443 67.2592 87.0443 67.7553C87.0443 68.2517 87.4414 68.6484 87.9376 68.6484C88.434 68.6484 88.8308 68.2513 88.8308 67.7553C88.8308 67.2592 88.4337 66.8622 87.9376 66.8622Z" fill="#272727"/>
</g>
<defs>
<filter id="filter0_d_7370_26145" x="31" y="34.8112" width="93" height="92.988" filterUnits="userSpaceOnUse" color-interpolation-filters="sRGB">
<feFlood flood-opacity="0" result="BackgroundImageFix"/>
<feColorMatrix in="SourceAlpha" type="matrix" values="0 0 0 0 0 0 0 0 0 0 0 0 0 0 0 0 0 0 127 0" result="hardAlpha"/>
<feOffset dy="4"/>
<feGaussianBlur stdDeviation="2"/>
<feComposite in2="hardAlpha" operator="out"/>
<feColorMatrix type="matrix" values="0 0 0 0 0 0 0 0 0 0 0 0 0 0 0 0 0 0 0.25 0"/>
<feBlend mode="normal" in2="BackgroundImageFix" result="effect1_dropShadow_7370_26145"/>
<feBlend mode="normal" in="SourceGraphic" in2="effect1_dropShadow_7370_26145" result="shape"/>
</filter>
<filter id="filter1_d_7370_26145" x="4" y="3.81116" width="147" height="146.988" filterUnits="userSpaceOnUse" color-interpolation-filters="sRGB">
<feFlood flood-opacity="0" result="BackgroundImageFix"/>
<feColorMatrix in="SourceAlpha" type="matrix" values="0 0 0 0 0 0 0 0 0 0 0 0 0 0 0 0 0 0 127 0" result="hardAlpha"/>
<feOffset/>
<feGaussianBlur stdDeviation="15.5"/>
<feComposite in2="hardAlpha" operator="out"/>
<feColorMatrix type="matrix" values="0 0 0 0 1 0 0 0 0 0.0125 0 0 0 0 0.0125 0 0 0 0.52 0"/>
<feBlend mode="normal" in2="BackgroundImageFix" result="effect1_dropShadow_7370_26145"/>
<feBlend mode="normal" in="SourceGraphic" in2="effect1_dropShadow_7370_26145" result="shape"/>
</filter>
<filter id="filter2_d_7370_26145" x="0.634766" y="0.444092" width="153.73" height="153.721" filterUnits="userSpaceOnUse" color-interpolation-filters="sRGB">
<feFlood flood-opacity="0" result="BackgroundImageFix"/>
<feColorMatrix in="SourceAlpha" type="matrix" values="0 0 0 0 0 0 0 0 0 0 0 0 0 0 0 0 0 0 127 0" result="hardAlpha"/>
<feOffset/>
<feGaussianBlur stdDeviation="23.5"/>
<feComposite in2="hardAlpha" operator="out"/>
<feColorMatrix type="matrix" values="0 0 0 0 0.0291666 0 0 0 0 0.6505 0 0 0 0 1 0 0 0 0.25 0"/>
<feBlend mode="normal" in2="BackgroundImageFix" result="effect1_dropShadow_7370_26145"/>
<feBlend mode="normal" in="SourceGraphic" in2="effect1_dropShadow_7370_26145" result="shape"/>
</filter>
</defs>
</svg>
